<?xml version="1.0" encoding="utf-8"?>
<!-- Generator: Adobe Illustrator 26.5.0, SVG Export Plug-In . SVG Version: 6.00 Build 0)  -->
<svg version="1.0" id="Layer_1" xmlns="http://www.w3.org/2000/svg" xmlns:xlink="http://www.w3.org/1999/xlink" x="0px" y="0px"
	 viewBox="0 0 645.92 482.03" style="enable-background:new 0 0 645.92 482.03;" xml:space="preserve">
<style type="text/css">
	.st0{fill:#2D2623;}
	.st1{fill:#101C2F;}
</style>
<path class="st0" d="M475.71,390.54c3.34-12.58,6.7-25.15,10.31-37.65l26,0.07c0.23,0.55,0.25,1.51-0.47,1.78h-24.28
	c-0.29,0.9-0.61,1.86-0.82,2.8c-1.05,4.61-2.51,9.07-3.44,13.7c0.35-0.27,0.76-0.43,1.2-0.47c6.85,0.21,13.8,0.09,20.66-0.06
	c0.15,0.56,0.27,1.52-0.46,1.8h-0.55c-7.13-0.07-14.29-0.13-21.42,0.05L478,388.85h24.66l-0.07,1.79L475.71,390.54z"/>
<path class="st0" d="M413.28,390.38h-0.47l-0.92,0.08c0.02-0.27,0.06-0.54,0.11-0.8c3.45-12.24,6.55-24.57,10.07-36.78
	c5.06-0.23,10.13-0.16,15.18,0.21c3.52,0.35,6.65,2.36,8.43,5.41c1.32,2.42,1.12,6.05,0.31,8.63c-0.93,3-3.67,5.3-6.34,6.63
	c-5.7,2.83-14.75,2.33-21.09,2.19c0,0-0.82,0-0.88,0c-0.11,0.23-0.21,0.48-0.28,0.73c-1.07,4.57-2.7,9.17-3.65,13.72L413.28,390.38z
	 M418.28,374.28c5,0,10.15,0.29,15.14-0.4c1.29-0.25,2.57-0.56,3.83-0.94c3.27-1.34,6.12-3.76,7.1-7.28
	c0.88-3.14,0.22-7.17-2.78-9.05c-1.33-0.82-2.79-1.42-4.32-1.77c-4.52-0.5-9.12-0.21-13.66-0.25l-0.28,0.52
	c-0.17,0.32-0.29,0.65-0.37,1c-1.39,5.66-2.91,11.71-4.65,17.25C418.25,373.67,418.25,373.97,418.28,374.28L418.28,374.28z"/>
<path class="st0" d="M281.96,390.18c-8.6,0-17.18-0.34-25.77,0c0.05-0.34,0.09-0.68,0.17-1c3.3-12.23,6.65-24.31,9.86-36.58
	c0.29-0.06,0.58-0.09,0.88-0.11c8.53-0.06,17.07,0.11,25.62,0.07l-0.41,1.73c-7.93,0-15.86,0-23.78,0
	c-0.32,0.02-0.64,0.09-0.94,0.21c-1.36,5.25-2.8,10.44-4.2,15.71c0.27,0.07,0.55,0.12,0.83,0.14c6.86,0,13.78,0,20.61,0
	c0.28,0.14,0.51,0.37,0.66,0.64c-0.1,0.43-0.33,0.83-0.66,1.12l-21.8-0.09c-0.13,0.28-0.25,0.57-0.35,0.87
	c-1.42,5.16-2.76,10.29-4.14,15.44c0.29,0,0.58,0.06,0.88,0.06c7.65,0,15.38-0.09,23,0c0.24,0.02,0.48,0.1,0.68,0.24l-0.28,1.59
	L281.96,390.18z"/>
<path class="st0" d="M316.46,390.26c-0.52,0.04-1.04-0.07-1.51-0.31l-8-15.8c-3.85,0-7.71-0.11-11.55,0
	c-0.6,0.01-1.2,0.06-1.79,0.13c-1,5.25-2.69,10.68-4.13,15.9l-1.85-0.05c3.37-12.54,6.68-25.07,10.07-37.59
	c5.6,0.1,11.26-0.13,16.87,0.21c1.31,0.22,2.59,0.57,3.83,1.05c1.71,0.85,3.15,2.15,4.17,3.76c1.79,2.9,1,6.61-0.11,9.58
	c-0.06,0.15-1.21,1.8-1.3,1.92c-1.39,1.59-3.16,2.8-5.15,3.51c-2.31,0.79-4.69,1.34-7.11,1.63c2.9,5.26,5.47,11,8.54,16.08
	L316.46,390.26z M294.55,372.38c6.54,0.14,13.6,0.71,20-1c1.34-0.58,2.62-1.27,3.83-2.07c1.78-1.54,2.94-3.67,3.27-6
	c0.06-1.12-0.01-2.25-0.22-3.36c-1.77-4-4.4-5.32-8.8-5.54c-4.4-0.22-8.95-0.12-13.43-0.13c-1.67,5.63-2.83,11.69-4.73,17.18
	C294.24,371.67,294.46,372.18,294.55,372.38z"/>
<path class="st0" d="M234.19,390.3c-0.2-0.69-0.36-1.4-0.48-2.11c-0.1-0.39,0-1-0.06-1.44c-2.35-11.21-4-23-5.93-34.38h2.1
	c1.59,11.46,3.64,22.88,5.26,34.33c0.13,0.36,0.31,0.7,0.55,1c0.34-0.56,0.74-1.43,1.15-2c7.8-10.81,15.38-21.69,23-32.6
	c0.15-0.19,0.31-0.37,0.48-0.54c0.77-0.22,1.57-0.28,2.36-0.2c-9,12.54-18.07,25.14-26.92,37.79L234.19,390.3z"/>
<path class="st0" d="M443.7,390.76c3-10.91,5.88-21.87,9-32.77c0.45-1.57,1-3.57,1.26-5.18c5.14,0,10.33-0.18,15.45,0.33
	c3.65,0.27,6.88,2.49,8.43,5.81c0.54,1.37,0.78,2.85,0.71,4.32c0,2.82-1.05,5.54-2.95,7.62c-2.59,2.56-5.94,4.22-9.55,4.72
	c-5,0.8-11.12,0.39-16.29,0.39c-0.05,0.1-0.44,1-0.5,1.17c-1.1,4.23-2.62,8.92-3.44,13.12L443.7,390.76z M449.96,374.31
	c4.71-0.07,9.44,0.16,14.16-0.13c1.63-0.23,3.24-0.64,4.79-1.2c2.33-0.9,4.8-2.18,6.12-4.44c1.36-2.13,1.88-4.69,1.47-7.19
	c-0.55-2.56-2.3-4.68-4.71-5.7c-1.25-0.42-2.53-0.74-3.83-0.93c-4.2-0.24-8.42,0-12.61-0.05C453.8,361.28,452,367.83,449.96,374.31z
	"/>
<path class="st0" d="M407.53,390.33c-0.31,0-0.62,0-0.93,0.07l-2.1-10.86c-7.45-0.18-14.92-0.13-22.37-0.15
	c-0.26,0-0.52,0.03-0.78,0.09c-2.44,3.66-5.08,7.18-7.91,10.54c-0.43,0.47-1.8,0.37-2.36,0.15l28.21-37.76l1.76,0.18
	c2.35,12.65,4.9,25.21,7.49,37.83L407.53,390.33z M403.22,377.76h0.94l-4.49-23.1c-5.47,7.5-11,15.08-16.72,22.43l0.62,0.6
	C390.07,377.54,396.69,377.51,403.22,377.76z"/>
<path class="st0" d="M536.96,390.5c-0.22,0-0.44-0.09-0.66-0.12c-5.58-11.49-11.8-23.47-17.95-34.68
	c-2.9,11.49-6.36,22.92-9.17,34.47c-0.43,0.31-0.92,0.53-1.44,0.65c-0.29-0.32-0.44-0.76-0.39-1.19c0.73-2.19,1.17-4.49,1.78-6.71
	c2.13-7.73,4.17-15.28,6.2-23c0.05-0.19,0.27-0.29,0.33-0.48c0.56-1.91,0.93-3.85,1.49-5.75c0.23-0.42,0.58-0.77,1-1
	c0.51,0.21,0.94,0.56,1.26,1c5.72,11.32,11.68,22.57,17.54,33.82c3.38-11,6.3-22.64,9.25-33.82c0.21-0.8,1.49-0.71,2.07-0.56
	c-2.82,11.07-6,22.1-8.94,33.16c-0.05,0.18-0.25,0.29-0.29,0.47c-0.29,1.39-0.6,2.74-0.95,4.13L536.96,390.5z"/>
<path class="st0" d="M334.2,390.73c-5.09-0.52-9.74-3.09-12.89-7.12l1.52-1c1.3,1.63,2.87,3.02,4.65,4.11
	c2.06,1.23,4.34,2.02,6.72,2.33c3.88,0.46,7.79-0.51,11-2.73c0.15-0.1,1.11-1.27,1.26-1.46c1-1.22,1.55-2.74,1.58-4.31
	c0.12-1.59-0.44-3.16-1.54-4.32c-1.45-1.5-3.21-2.66-5.15-3.4c-4.73-2.12-8.27-2.35-11.8-6.67c-0.54-0.87-0.91-1.85-1.06-2.87
	c-0.21-2.02,0.28-4.05,1.4-5.75c3.22-4.92,9.86-6.13,15.3-5.13c4.16,0.76,6.61,2.48,9.6,5.26l-1.38,1.28
	c-1.38-1.25-2.84-2.41-4.38-3.46c-1.16-0.75-2.47-1.23-3.84-1.39c-2.38-0.43-4.81-0.43-7.19,0c-2.42,0.58-3.59,1.63-5.33,2.9
	c-0.89,0.81-1.58,1.81-2,2.94c-0.13,0.47-0.22,0.95-0.24,1.44c-0.24,1.81,0.42,3.63,1.78,4.85c0.91,0.75,1.88,1.42,2.91,2
	c3.39,1.43,6.76,2.75,10.07,4.26c1.22,0.82,2.33,1.78,3.32,2.86c2.46,3.12,1.62,8.2-0.86,11c-0.96,1.09-2.11,1.99-3.39,2.67
	C341.13,390.52,337.65,391.12,334.2,390.73z"/>
<path class="st0" d="M127.18,389.88c2-7,3.76-14.11,5.93-21.09c0.08-0.25-0.55,0.13-0.73,0.32c-4.19,4.59-8.78,9.19-12.67,14
	c-0.18-0.19-0.34-0.4-0.47-0.63c-1.91-4.45-3.85-9.8-5.34-14.4c-1.69,7.34-3.83,14.48-5.7,21.72l-10.59,0.07
	c3.57-12.39,6.84-24.86,10.22-37.3c0.13-0.21,0.35-0.36,0.59-0.41c3.38,0,6.78,0,10.17,0l4.79,14.66c4.08-4.74,8.25-9.31,12.3-14.06
	c0.21-0.24,0.48-0.42,0.78-0.53l11.55-0.06c-0.27,1.22-0.51,2.29-0.84,3.5c-3.06,11.41-6.27,22.73-9.34,34.19L127.18,389.88z"/>
<path class="st0" d="M360.1,390.38c0.02-0.41,0.07-0.82,0.14-1.23c3.18-11.49,6.62-23.22,9.38-34.78l-13.1,0.08
	c-0.06-0.26-0.12-0.51-0.17-0.77c0.14-0.43,0.45-0.79,0.85-1c9.11,0.06,18.22,0.06,27.32,0c0.31,0.01,0.61,0.08,0.89,0.19l-0.2,1.68
	l-13.65-0.06l-9.69,35.79L360.1,390.38z"/>
<path class="st0" d="M206.3,390.02c-1.14-3.01-2.26-6.01-3.35-9c-0.45-1.2-0.91-0.7-0.66-2.33l-0.87,0.09
	c-0.11,0.11-0.22,0.21-0.31,0.32c-2.68,3.44-6,6.77-8.88,10.07c-0.15,0.2-0.25,0.44-0.29,0.69l-21.29,0.08l-0.88-6.7l-14.42-0.22
	l-4.59,6.72l-11.5,0.07c8.09-11.57,16.17-23.08,24.13-34.74c0.71-1,1.46-2.1,2.22-3.11c3.13,0,6.29,0,9.44-0.05
	c0,0,0.89,0.05,0.93,0.05l5.34,35.37c5.16-5.57,10.29-11.15,15.62-16.56c0.2-0.66,0.29-0.76,0-1.31c-2.52-5.65-4.92-11.39-7.5-17.05
	c0.29-0.09,0.59-0.16,0.9-0.19c3.54,0.05,7.11,0.09,10.67,0c1.45,3.65,2.66,7.18,4.24,10.73c2.88-3.75,5.99-7.32,9.31-10.69
	c4.2,0.22,8.46,0.13,12.65,0c-5.94,6.17-11.74,12.5-17.59,18.76c2.74,6.39,5.47,12.67,8.32,19L206.3,390.02z M168.3,374.93h0.61
	l-1.27-10.52l-7,10.55c2.57-0.1,5.14-0.12,7.7-0.03H168.3z"/>
<polygon id="Path" class="st1" points="473.72,196.63 549,272.12 398.45,272.12 "/>
<polygon id="Path-2" class="st1" points="172.19,196.63 247.68,272.12 96.92,272.12 "/>
<polygon id="Path-3" class="st1" points="322.96,317.2 96.92,91.16 240.03,113.7 322.96,196.63 405.89,113.7 549,91.16 "/>
</svg>
